<mxfile host="app.diagrams.net" modified="2023-02-16T02:27:28.221Z" agent="5.0 (Windows NT 10.0; Win64; x64) AppleWebKit/537.36 (KHTML, like Gecko) Chrome/110.0.0.0 Safari/537.36 Edg/110.0.1587.41" etag="SGBjMdg0DpVV89BlT-8p" version="20.8.20" type="github">
  <diagram name="Page-1" id="A7SWorkjPBMrGO_NBy6v">
    <mxGraphModel dx="1387" dy="796" grid="0" gridSize="10" guides="1" tooltips="1" connect="1" arrows="1" fold="1" page="1" pageScale="1" pageWidth="1100" pageHeight="850" math="0" shadow="0">
      <root>
        <mxCell id="0" />
        <mxCell id="1" parent="0" />
        <mxCell id="RYmAthQIYImnWCT-ra_u-32" value="" style="rounded=1;whiteSpace=wrap;html=1;fillColor=#E3EFFF;" vertex="1" parent="1">
          <mxGeometry x="31" y="277" width="810" height="155" as="geometry" />
        </mxCell>
        <mxCell id="RYmAthQIYImnWCT-ra_u-8" value="" style="sketch=0;points=[[0,0,0],[0.25,0,0],[0.5,0,0],[0.75,0,0],[1,0,0],[0,1,0],[0.25,1,0],[0.5,1,0],[0.75,1,0],[1,1,0],[0,0.25,0],[0,0.5,0],[0,0.75,0],[1,0.25,0],[1,0.5,0],[1,0.75,0]];outlineConnect=0;fontColor=#232F3E;gradientColor=#4D72F3;gradientDirection=north;fillColor=#3334B9;strokeColor=#ffffff;dashed=0;verticalLabelPosition=bottom;verticalAlign=top;align=center;html=1;fontSize=12;fontStyle=0;aspect=fixed;shape=mxgraph.aws4.resourceIcon;resIcon=mxgraph.aws4.codepipeline;" vertex="1" parent="1">
          <mxGeometry x="111" y="305.5" width="97" height="97" as="geometry" />
        </mxCell>
        <mxCell id="RYmAthQIYImnWCT-ra_u-20" style="edgeStyle=orthogonalEdgeStyle;shape=flexArrow;rounded=0;orthogonalLoop=1;jettySize=auto;html=1;fillColor=#FFFF00;" edge="1" parent="1">
          <mxGeometry relative="1" as="geometry">
            <mxPoint x="421" y="355" as="sourcePoint" />
            <mxPoint x="508" y="355" as="targetPoint" />
          </mxGeometry>
        </mxCell>
        <mxCell id="RYmAthQIYImnWCT-ra_u-9" value="" style="sketch=0;points=[[0,0,0],[0.25,0,0],[0.5,0,0],[0.75,0,0],[1,0,0],[0,1,0],[0.25,1,0],[0.5,1,0],[0.75,1,0],[1,1,0],[0,0.25,0],[0,0.5,0],[0,0.75,0],[1,0.25,0],[1,0.5,0],[1,0.75,0]];outlineConnect=0;fontColor=#232F3E;gradientColor=#4D72F3;gradientDirection=north;fillColor=#3334B9;strokeColor=#ffffff;dashed=0;verticalLabelPosition=bottom;verticalAlign=top;align=center;html=1;fontSize=12;fontStyle=0;aspect=fixed;shape=mxgraph.aws4.resourceIcon;resIcon=mxgraph.aws4.codecommit;" vertex="1" parent="1">
          <mxGeometry x="348" y="323" width="63" height="63" as="geometry" />
        </mxCell>
        <mxCell id="RYmAthQIYImnWCT-ra_u-24" style="edgeStyle=orthogonalEdgeStyle;shape=flexArrow;rounded=0;orthogonalLoop=1;jettySize=auto;html=1;fillColor=#FFFF00;" edge="1" parent="1">
          <mxGeometry relative="1" as="geometry">
            <mxPoint x="672" y="354.5" as="targetPoint" />
            <mxPoint x="591" y="355" as="sourcePoint" />
            <Array as="points">
              <mxPoint x="638" y="355" />
              <mxPoint x="638" y="355" />
            </Array>
          </mxGeometry>
        </mxCell>
        <mxCell id="RYmAthQIYImnWCT-ra_u-10" value="" style="sketch=0;points=[[0,0,0],[0.25,0,0],[0.5,0,0],[0.75,0,0],[1,0,0],[0,1,0],[0.25,1,0],[0.5,1,0],[0.75,1,0],[1,1,0],[0,0.25,0],[0,0.5,0],[0,0.75,0],[1,0.25,0],[1,0.5,0],[1,0.75,0]];outlineConnect=0;fontColor=#232F3E;gradientColor=#4D72F3;gradientDirection=north;fillColor=#3334B9;strokeColor=#ffffff;dashed=0;verticalLabelPosition=bottom;verticalAlign=top;align=center;html=1;fontSize=12;fontStyle=0;aspect=fixed;shape=mxgraph.aws4.resourceIcon;resIcon=mxgraph.aws4.codebuild;" vertex="1" parent="1">
          <mxGeometry x="521" y="323" width="63" height="63" as="geometry" />
        </mxCell>
        <mxCell id="RYmAthQIYImnWCT-ra_u-11" value="" style="sketch=0;points=[[0,0,0],[0.25,0,0],[0.5,0,0],[0.75,0,0],[1,0,0],[0,1,0],[0.25,1,0],[0.5,1,0],[0.75,1,0],[1,1,0],[0,0.25,0],[0,0.5,0],[0,0.75,0],[1,0.25,0],[1,0.5,0],[1,0.75,0]];outlineConnect=0;fontColor=#232F3E;gradientColor=#4D72F3;gradientDirection=north;fillColor=#3334B9;strokeColor=#ffffff;dashed=0;verticalLabelPosition=bottom;verticalAlign=top;align=center;html=1;fontSize=12;fontStyle=0;aspect=fixed;shape=mxgraph.aws4.resourceIcon;resIcon=mxgraph.aws4.codedeploy;" vertex="1" parent="1">
          <mxGeometry x="682" y="323" width="62" height="62" as="geometry" />
        </mxCell>
        <mxCell id="RYmAthQIYImnWCT-ra_u-12" value="" style="sketch=0;outlineConnect=0;fontColor=#232F3E;gradientColor=none;fillColor=#D45B07;strokeColor=none;dashed=0;verticalLabelPosition=bottom;verticalAlign=top;align=center;html=1;fontSize=12;fontStyle=0;aspect=fixed;pointerEvents=1;shape=mxgraph.aws4.ecs_task;" vertex="1" parent="1">
          <mxGeometry x="564" y="137" width="28" height="36.32" as="geometry" />
        </mxCell>
        <mxCell id="RYmAthQIYImnWCT-ra_u-13" value="" style="sketch=0;outlineConnect=0;fontColor=#232F3E;gradientColor=none;fillColor=#D45B07;strokeColor=none;dashed=0;verticalLabelPosition=bottom;verticalAlign=top;align=center;html=1;fontSize=12;fontStyle=0;aspect=fixed;pointerEvents=1;shape=mxgraph.aws4.ecs_service;" vertex="1" parent="1">
          <mxGeometry x="683.27" y="137" width="59.46" height="73.19" as="geometry" />
        </mxCell>
        <mxCell id="RYmAthQIYImnWCT-ra_u-14" value="" style="sketch=0;outlineConnect=0;fontColor=#232F3E;gradientColor=none;fillColor=#D45B07;strokeColor=none;dashed=0;verticalLabelPosition=bottom;verticalAlign=top;align=center;html=1;fontSize=12;fontStyle=0;aspect=fixed;pointerEvents=1;shape=mxgraph.aws4.registry;" vertex="1" parent="1">
          <mxGeometry x="935" y="300" width="94" height="94" as="geometry" />
        </mxCell>
        <mxCell id="RYmAthQIYImnWCT-ra_u-15" value="" style="sketch=0;outlineConnect=0;fontColor=#232F3E;gradientColor=none;fillColor=#D45B07;strokeColor=none;dashed=0;verticalLabelPosition=bottom;verticalAlign=top;align=center;html=1;fontSize=12;fontStyle=0;aspect=fixed;pointerEvents=1;shape=mxgraph.aws4.container_1;" vertex="1" parent="1">
          <mxGeometry x="553" y="492" width="60.39" height="39" as="geometry" />
        </mxCell>
        <mxCell id="RYmAthQIYImnWCT-ra_u-16" value="" style="sketch=0;outlineConnect=0;fontColor=#232F3E;gradientColor=none;fillColor=#D45B07;strokeColor=none;dashed=0;verticalLabelPosition=bottom;verticalAlign=top;align=center;html=1;fontSize=12;fontStyle=0;aspect=fixed;pointerEvents=1;shape=mxgraph.aws4.container_registry_image;" vertex="1" parent="1">
          <mxGeometry x="496" y="490" width="48" height="48" as="geometry" />
        </mxCell>
        <mxCell id="RYmAthQIYImnWCT-ra_u-17" value="" style="sketch=0;outlineConnect=0;fontColor=#232F3E;gradientColor=none;fillColor=#D45B07;strokeColor=none;dashed=0;verticalLabelPosition=bottom;verticalAlign=top;align=center;html=1;fontSize=12;fontStyle=0;aspect=fixed;pointerEvents=1;shape=mxgraph.aws4.container_1;" vertex="1" parent="1">
          <mxGeometry x="528.5" y="394" width="48" height="31" as="geometry" />
        </mxCell>
        <mxCell id="RYmAthQIYImnWCT-ra_u-22" style="edgeStyle=orthogonalEdgeStyle;rounded=0;orthogonalLoop=1;jettySize=auto;html=1;" edge="1" parent="1">
          <mxGeometry relative="1" as="geometry">
            <mxPoint x="379" y="399" as="targetPoint" />
            <mxPoint x="379" y="446" as="sourcePoint" />
          </mxGeometry>
        </mxCell>
        <mxCell id="RYmAthQIYImnWCT-ra_u-18" value="" style="shape=image;html=1;verticalAlign=top;verticalLabelPosition=bottom;labelBackgroundColor=#ffffff;imageAspect=0;aspect=fixed;image=https://cdn1.iconfinder.com/data/icons/bootstrap-vol-3/16/filetype-yml-128.png" vertex="1" parent="1">
          <mxGeometry x="355.5" y="467" width="48" height="48" as="geometry" />
        </mxCell>
        <mxCell id="RYmAthQIYImnWCT-ra_u-25" value="" style="sketch=0;aspect=fixed;pointerEvents=1;shadow=0;dashed=0;html=1;strokeColor=none;labelPosition=center;verticalLabelPosition=bottom;verticalAlign=top;align=center;fillColor=#00188D;shape=mxgraph.azure.script_file" vertex="1" parent="1">
          <mxGeometry x="228" y="180.4" width="28" height="29.79" as="geometry" />
        </mxCell>
        <mxCell id="RYmAthQIYImnWCT-ra_u-26" value="" style="sketch=0;aspect=fixed;pointerEvents=1;shadow=0;dashed=0;html=1;strokeColor=none;labelPosition=center;verticalLabelPosition=bottom;verticalAlign=top;align=center;fillColor=#00188D;shape=mxgraph.azure.script_file" vertex="1" parent="1">
          <mxGeometry x="226.5" y="226" width="31" height="32.98" as="geometry" />
        </mxCell>
        <mxCell id="RYmAthQIYImnWCT-ra_u-27" value="" style="endArrow=classic;html=1;rounded=0;fillColor=#CCCC00;edgeStyle=orthogonalEdgeStyle;" edge="1" parent="1">
          <mxGeometry width="50" height="50" relative="1" as="geometry">
            <mxPoint x="344" y="228" as="sourcePoint" />
            <mxPoint x="384" y="299" as="targetPoint" />
          </mxGeometry>
        </mxCell>
        <mxCell id="RYmAthQIYImnWCT-ra_u-28" value="" style="endArrow=classic;html=1;rounded=0;fillColor=#FFFF33;shape=flexArrow;" edge="1" parent="1">
          <mxGeometry width="50" height="50" relative="1" as="geometry">
            <mxPoint x="713" y="282" as="sourcePoint" />
            <mxPoint x="713" y="220" as="targetPoint" />
          </mxGeometry>
        </mxCell>
        <mxCell id="RYmAthQIYImnWCT-ra_u-29" value="" style="endArrow=classic;html=1;rounded=0;fillColor=#FFFF00;" edge="1" parent="1">
          <mxGeometry width="50" height="50" relative="1" as="geometry">
            <mxPoint x="555" y="433" as="sourcePoint" />
            <mxPoint x="555" y="481" as="targetPoint" />
          </mxGeometry>
        </mxCell>
        <mxCell id="RYmAthQIYImnWCT-ra_u-31" value="" style="endArrow=classic;dashed=1;html=1;rounded=0;fillColor=#FFFF00;entryX=0.489;entryY=1.053;entryDx=0;entryDy=0;entryPerimeter=0;edgeStyle=orthogonalEdgeStyle;endFill=1;strokeWidth=2;" edge="1" parent="1" target="RYmAthQIYImnWCT-ra_u-14">
          <mxGeometry width="50" height="50" relative="1" as="geometry">
            <mxPoint x="626" y="515" as="sourcePoint" />
            <mxPoint x="676" y="465" as="targetPoint" />
          </mxGeometry>
        </mxCell>
        <mxCell id="RYmAthQIYImnWCT-ra_u-35" value="" style="shape=flexArrow;endArrow=classic;html=1;rounded=0;strokeWidth=1;fillColor=#FFD966;exitX=0.457;exitY=-0.043;exitDx=0;exitDy=0;exitPerimeter=0;endSize=6;" edge="1" parent="1" source="RYmAthQIYImnWCT-ra_u-14">
          <mxGeometry width="50" height="50" relative="1" as="geometry">
            <mxPoint x="911" y="244" as="sourcePoint" />
            <mxPoint x="774" y="199" as="targetPoint" />
          </mxGeometry>
        </mxCell>
        <mxCell id="RYmAthQIYImnWCT-ra_u-37" value="Dockerfile" style="text;html=1;strokeColor=none;fillColor=none;align=center;verticalAlign=middle;whiteSpace=wrap;rounded=0;" vertex="1" parent="1">
          <mxGeometry x="256" y="180.19" width="81" height="30" as="geometry" />
        </mxCell>
        <mxCell id="RYmAthQIYImnWCT-ra_u-38" value="config.yml" style="text;html=1;strokeColor=none;fillColor=none;align=center;verticalAlign=middle;whiteSpace=wrap;rounded=0;" vertex="1" parent="1">
          <mxGeometry x="259" y="227.49" width="75" height="30" as="geometry" />
        </mxCell>
        <mxCell id="RYmAthQIYImnWCT-ra_u-39" value="&lt;b&gt;buildPipeline.yml&lt;/b&gt;" style="text;html=1;strokeColor=none;fillColor=none;align=center;verticalAlign=middle;whiteSpace=wrap;rounded=0;" vertex="1" parent="1">
          <mxGeometry x="349.5" y="519" width="60" height="30" as="geometry" />
        </mxCell>
        <mxCell id="RYmAthQIYImnWCT-ra_u-40" value="&lt;b&gt;&lt;font style=&quot;font-size: 11px;&quot;&gt;Task Definition&lt;/font&gt;&lt;/b&gt;" style="text;html=1;strokeColor=none;fillColor=none;align=center;verticalAlign=middle;whiteSpace=wrap;rounded=0;" vertex="1" parent="1">
          <mxGeometry x="493" y="133" width="60" height="30" as="geometry" />
        </mxCell>
        <mxCell id="RYmAthQIYImnWCT-ra_u-41" value="&lt;b&gt;CodeBuild&lt;/b&gt;" style="text;html=1;strokeColor=none;fillColor=none;align=center;verticalAlign=middle;whiteSpace=wrap;rounded=0;" vertex="1" parent="1">
          <mxGeometry x="520" y="291" width="60" height="30" as="geometry" />
        </mxCell>
        <mxCell id="RYmAthQIYImnWCT-ra_u-42" value="&lt;b&gt;CodeCommit&lt;/b&gt;" style="text;html=1;strokeColor=none;fillColor=none;align=center;verticalAlign=middle;whiteSpace=wrap;rounded=0;" vertex="1" parent="1">
          <mxGeometry x="349.5" y="293" width="60" height="30" as="geometry" />
        </mxCell>
        <mxCell id="RYmAthQIYImnWCT-ra_u-43" value="&lt;b&gt;CodeDeploy&lt;/b&gt;" style="text;html=1;strokeColor=none;fillColor=none;align=center;verticalAlign=middle;whiteSpace=wrap;rounded=0;" vertex="1" parent="1">
          <mxGeometry x="683" y="291" width="60" height="30" as="geometry" />
        </mxCell>
        <mxCell id="RYmAthQIYImnWCT-ra_u-46" value="&lt;b&gt;CodePipeline&lt;/b&gt;" style="text;html=1;strokeColor=none;fillColor=none;align=center;verticalAlign=middle;whiteSpace=wrap;rounded=0;" vertex="1" parent="1">
          <mxGeometry x="129.5" y="402.5" width="60" height="30" as="geometry" />
        </mxCell>
        <mxCell id="RYmAthQIYImnWCT-ra_u-47" value="&lt;b&gt;&lt;font style=&quot;font-size: 11px;&quot;&gt;Elastic Container Registry (ECR)&lt;/font&gt;&lt;/b&gt;" style="text;html=1;strokeColor=none;fillColor=none;align=center;verticalAlign=middle;whiteSpace=wrap;rounded=0;" vertex="1" parent="1">
          <mxGeometry x="1009" y="407" width="65" height="30" as="geometry" />
        </mxCell>
        <mxCell id="RYmAthQIYImnWCT-ra_u-48" value="&lt;b&gt;Application&lt;/b&gt;" style="text;html=1;strokeColor=none;fillColor=none;align=center;verticalAlign=middle;whiteSpace=wrap;rounded=0;" vertex="1" parent="1">
          <mxGeometry x="683" y="105" width="60" height="30" as="geometry" />
        </mxCell>
        <mxCell id="RYmAthQIYImnWCT-ra_u-49" value="ECS Fargate" style="sketch=0;outlineConnect=0;fontColor=#232F3E;gradientColor=none;strokeColor=#ffffff;fillColor=#232F3E;dashed=0;verticalLabelPosition=middle;verticalAlign=bottom;align=center;html=1;whiteSpace=wrap;fontSize=10;fontStyle=1;spacing=3;shape=mxgraph.aws4.productIcon;prIcon=mxgraph.aws4.fargate;" vertex="1" parent="1">
          <mxGeometry x="894" y="129.19" width="55" height="86.81" as="geometry" />
        </mxCell>
        <mxCell id="RYmAthQIYImnWCT-ra_u-50" value="" style="shape=flexArrow;endArrow=classic;html=1;rounded=0;strokeWidth=1;fontSize=11;endSize=6;fillColor=#FFFF00;" edge="1" parent="1">
          <mxGeometry width="50" height="50" relative="1" as="geometry">
            <mxPoint x="765" y="163" as="sourcePoint" />
            <mxPoint x="870" y="163" as="targetPoint" />
          </mxGeometry>
        </mxCell>
        <mxCell id="RYmAthQIYImnWCT-ra_u-51" value="" style="endArrow=classic;html=1;rounded=0;strokeWidth=1;fontSize=11;endSize=6;fillColor=#FFFF00;" edge="1" parent="1" target="RYmAthQIYImnWCT-ra_u-13">
          <mxGeometry width="50" height="50" relative="1" as="geometry">
            <mxPoint x="592" y="158" as="sourcePoint" />
            <mxPoint x="642" y="108" as="targetPoint" />
          </mxGeometry>
        </mxCell>
        <mxCell id="RYmAthQIYImnWCT-ra_u-52" value="Pipeline Workflow" style="swimlane;fontStyle=0;childLayout=stackLayout;horizontal=1;startSize=30;horizontalStack=0;resizeParent=1;resizeParentMax=0;resizeLast=0;collapsible=1;marginBottom=0;whiteSpace=wrap;html=1;fontSize=11;fillColor=#E3EFFF;" vertex="1" parent="1">
          <mxGeometry x="48" y="467" width="204" height="150" as="geometry" />
        </mxCell>
        <mxCell id="RYmAthQIYImnWCT-ra_u-53" value="1.) Commit" style="text;strokeColor=none;fillColor=none;align=left;verticalAlign=middle;spacingLeft=4;spacingRight=4;overflow=hidden;points=[[0,0.5],[1,0.5]];portConstraint=eastwest;rotatable=0;whiteSpace=wrap;html=1;fontSize=11;" vertex="1" parent="RYmAthQIYImnWCT-ra_u-52">
          <mxGeometry y="30" width="204" height="30" as="geometry" />
        </mxCell>
        <mxCell id="RYmAthQIYImnWCT-ra_u-54" value="2.) Pipeline runs build stage" style="text;strokeColor=none;fillColor=none;align=left;verticalAlign=middle;spacingLeft=4;spacingRight=4;overflow=hidden;points=[[0,0.5],[1,0.5]];portConstraint=eastwest;rotatable=0;whiteSpace=wrap;html=1;fontSize=11;" vertex="1" parent="RYmAthQIYImnWCT-ra_u-52">
          <mxGeometry y="60" width="204" height="30" as="geometry" />
        </mxCell>
        <mxCell id="RYmAthQIYImnWCT-ra_u-55" value="3.) Pipeline runs deploy stage" style="text;strokeColor=none;fillColor=none;align=left;verticalAlign=middle;spacingLeft=4;spacingRight=4;overflow=hidden;points=[[0,0.5],[1,0.5]];portConstraint=eastwest;rotatable=0;whiteSpace=wrap;html=1;fontSize=11;" vertex="1" parent="RYmAthQIYImnWCT-ra_u-52">
          <mxGeometry y="90" width="204" height="30" as="geometry" />
        </mxCell>
        <mxCell id="RYmAthQIYImnWCT-ra_u-66" value="4.) ECS service updated" style="text;strokeColor=none;fillColor=none;align=left;verticalAlign=middle;spacingLeft=4;spacingRight=4;overflow=hidden;points=[[0,0.5],[1,0.5]];portConstraint=eastwest;rotatable=0;whiteSpace=wrap;html=1;fontSize=11;" vertex="1" parent="RYmAthQIYImnWCT-ra_u-52">
          <mxGeometry y="120" width="204" height="30" as="geometry" />
        </mxCell>
        <mxCell id="RYmAthQIYImnWCT-ra_u-61" value="1" style="ellipse;whiteSpace=wrap;html=1;aspect=fixed;strokeWidth=2;fontFamily=Tahoma;spacingBottom=4;spacingRight=2;strokeColor=#d3d3d3;fontSize=12;fillColor=#FFCC99;" vertex="1" parent="1">
          <mxGeometry x="411" y="244" width="20" height="20" as="geometry" />
        </mxCell>
        <mxCell id="RYmAthQIYImnWCT-ra_u-62" value="2" style="ellipse;whiteSpace=wrap;html=1;aspect=fixed;strokeWidth=2;fontFamily=Tahoma;spacingBottom=4;spacingRight=2;strokeColor=#d3d3d3;fontSize=12;fillColor=#FFCC99;" vertex="1" parent="1">
          <mxGeometry x="447" y="392" width="20" height="20" as="geometry" />
        </mxCell>
        <mxCell id="RYmAthQIYImnWCT-ra_u-63" value="3" style="ellipse;whiteSpace=wrap;html=1;aspect=fixed;strokeWidth=2;fontFamily=Tahoma;spacingBottom=4;spacingRight=2;strokeColor=#d3d3d3;fontSize=12;fillColor=#FFCC99;" vertex="1" parent="1">
          <mxGeometry x="633" y="392" width="20" height="20" as="geometry" />
        </mxCell>
        <mxCell id="RYmAthQIYImnWCT-ra_u-65" value="4" style="ellipse;whiteSpace=wrap;html=1;aspect=fixed;strokeWidth=2;fontFamily=Tahoma;spacingBottom=4;spacingRight=2;strokeColor=#d3d3d3;fontSize=12;fillColor=#FFCC99;" vertex="1" parent="1">
          <mxGeometry x="659" y="224" width="20" height="20" as="geometry" />
        </mxCell>
      </root>
    </mxGraphModel>
  </diagram>
</mxfile>
